<?xml version="1.0" encoding="UTF-8" standalone="no"?>
<svg xmlns:dc="http://purl.org/dc/elements/1.1/" xmlns:cc="http://creativecommons.org/ns#" xmlns:rdf="http://www.w3.org/1999/02/22-rdf-syntax-ns#" xmlns:svg="http://www.w3.org/2000/svg" xmlns="http://www.w3.org/2000/svg" xml:space="preserve" width="72" height="72" style="fill-rule:evenodd;image-rendering:optimizeQuality;shape-rendering:geometricPrecision;text-rendering:geometricPrecision" viewBox="0 0 750 750" version="1.1" id="svg9"><metadata id="metadata13"><rdf:RDF><cc:Work rdf:about=""><dc:format>image/svg+xml</dc:format><dc:type rdf:resource="http://purl.org/dc/dcmitype/StillImage" /><dc:title></dc:title></cc:Work></rdf:RDF></metadata>
 <defs id="defs4">
  <style type="text/css" id="style2">
   <![CDATA[
    .str0 {stroke:#000000;stroke-width:3}
    .fil0 {fill:#000000}
   ]]>
  </style>
 </defs>
 <g id="Layer_1" transform="matrix(0.05927893,0,0,0.05927893,128.10326,70.908604)">
  <path class="fil0 str0" d="M 7727,8644 H 6594 c -520,598 -1085,1036 -1692,1313 -191,16 -334,24 -425,24 -259,0 -552,-47 -881,-138 l -272,138 h -326 c -744,0 -1117,-267 -1117,-798 0,-31 5,-75 15,-138 -546,-44 -821,-305 -821,-780 0,-51 5,-121 15,-212 C 888,7996 735,7905 632,7778 528,7654 476,7493 476,7301 c 0,-155 55,-324 166,-500 -272,-293 -409,-619 -409,-979 0,-415 225,-749 676,-1003 451,-251 1047,-378 1791,-378 h 189 C 2829,3985 2689,3544 2472,3119 L 2350,2907 C 2088,2406 1956,2018 1956,1746 1956,992 2352,520 3148,333 l 220,-54 381,1687 1405,1495 c 96,112 261,327 500,645 l 212,280 c 228,309 389,498 482,565 94,70 244,104 451,104 h 889 c 272,580 409,1179 409,1790 0,596 -124,1198 -370,1799 z m -252,-394 c 159,-461 236,-902 236,-1322 0,-495 -85,-982 -259,-1464 -637,0 -1036,-39 -1197,-114 -163,-75 -407,-342 -731,-798 -129,-176 -326,-428 -583,-749 L 3415,2178 3112,771 c -508,174 -762,498 -762,975 0,246 85,515 259,803 l 98,168 c 397,659 594,1286 594,1884 l 8,213 h -275 c -803,0 -1410,80 -1814,238 -407,161 -609,402 -609,726 0,293 106,541 316,743 210,203 467,304 770,304 l 464,5 1376,-620 c -208,-313 -487,-471 -837,-471 -91,0 -208,21 -348,59 -142,42 -308,104 -502,184 l -358,16 -357,-381 616,-8 c 179,-75 340,-132 487,-166 146,-36 280,-54 402,-54 648,0 1122,329 1420,987 l -259,122 c 319,156 565,430 738,819 l -298,127 c 234,148 449,399 646,751 l -469,221 c 256,189 464,453 622,798 l -933,417 c 150,31 280,47 386,47 l 295,-8 C 5462,9281 6009,8807 6429,8250 Z M 4013,7149 c -176,-236 -388,-389 -637,-454 l -1132,508 h -402 c -381,0 -669,-54 -866,-161 -64,91 -98,179 -98,259 0,156 78,272 231,353 155,78 386,116 694,116 h 806 z m 319,888 c -23,-31 -44,-57 -59,-77 -122,-140 -267,-252 -433,-332 l -1164,516 -1228,-8 -23,98 c 0,298 295,449 889,449 h 570 z m 161,1024 c -36,-44 -62,-80 -83,-106 -96,-138 -218,-259 -365,-371 l -1086,485 h -700 v 46 c 0,340 246,508 739,508 h 248 z" id="path6" />
 </g>
</svg>
