<?xml version="1.0" encoding="UTF-8" standalone="no"?>
<svg xmlns:dc="http://purl.org/dc/elements/1.1/" xmlns:cc="http://creativecommons.org/ns#" xmlns:rdf="http://www.w3.org/1999/02/22-rdf-syntax-ns#" xmlns:svg="http://www.w3.org/2000/svg" xmlns="http://www.w3.org/2000/svg" xmlns:xlink="http://www.w3.org/1999/xlink" version="1.1" id="Capa_1" x="0px" y="0px" viewBox="0 0 71.999998 71.999998" xml:space="preserve" width="72" height="72"><title id="title898">Oros</title><metadata id="metadata69"><rdf:RDF><cc:Work rdf:about=""><dc:format>image/svg+xml</dc:format><dc:type rdf:resource="http://purl.org/dc/dcmitype/StillImage" /><dc:title>Oros</dc:title><dc:creator><cc:Agent><dc:title>Fernando Carmona Varo</dc:title></cc:Agent></dc:creator><cc:license rdf:resource="http://creativecommons.org/licenses/by-sa/4.0/" /></cc:Work><cc:License rdf:about="http://creativecommons.org/licenses/by-sa/4.0/"><cc:permits rdf:resource="http://creativecommons.org/ns#Reproduction" /><cc:permits rdf:resource="http://creativecommons.org/ns#Distribution" /><cc:requires rdf:resource="http://creativecommons.org/ns#Notice" /><cc:requires rdf:resource="http://creativecommons.org/ns#Attribution" /><cc:permits rdf:resource="http://creativecommons.org/ns#DerivativeWorks" /><cc:requires rdf:resource="http://creativecommons.org/ns#ShareAlike" /></cc:License></rdf:RDF></metadata><defs id="defs67" />
<g id="g32">
	<path d="m 62.07004,39.434458 2.924956,-3.434265 -2.925149,-3.434264 1.943985,-4.071384 -3.716141,-2.557936 0.816285,-4.436665 -4.253059,-1.504952 -0.358331,-4.497288 -4.497095,-0.357945 -1.504953,-4.253252 -4.436858,0.816091 -2.558129,-3.7161412 -4.071383,1.9435991 -3.434265,-2.9249554 -3.434264,2.9249554 -4.071384,-1.9437921 -2.557743,3.7161412 -4.436858,-0.816091 -1.504759,4.253058 -4.497288,0.357946 -0.358138,4.497481 -4.253059,1.504759 0.816092,4.436858 -3.7163348,2.558129 1.9437922,4.071384 -2.9249554,3.434264 2.9249554,3.434264 -1.9437922,4.071383 3.7161418,2.557936 -0.816478,4.436665 4.253059,1.504953 0.358524,4.497094 4.497095,0.358139 1.504759,4.253058 4.436858,-0.816091 2.557936,3.716141 4.071384,-1.943792 3.434264,2.924957 3.434265,-2.924957 4.071383,1.943792 2.557936,-3.716141 4.436665,0.816285 1.504953,-4.253059 4.497094,-0.358138 0.358331,-4.497287 4.253252,-1.50476 -0.816284,-4.436858 3.716141,-2.557936 z M 35.999903,59.19731 c -12.384435,0 -23.196923,-10.812296 -23.196923,-23.197117 0,-12.384821 10.812295,-23.19731 23.196923,-23.19731 12.385014,0 23.19731,10.812296 23.19731,23.197117 0,12.384821 -10.812296,23.19731 -23.19731,23.19731 z" id="coinEdge" style="stroke-width:0.193066" />
<text xml:space="preserve" style="font-style:normal;font-variant:normal;font-weight:600;font-stretch:normal;font-size:5.33333px;line-height:1.25;font-family:'Fira Code';-inkscape-font-specification:'Fira Code Semi-Bold';fill:#000000;fill-opacity:1;stroke:none;stroke-width:0.193066" id="textLeft"><textPath xlink:href="#innerCoin" id="textPath967"><tspan id="tspan894" style="font-style:normal;font-variant:normal;font-weight:600;font-stretch:normal;font-size:5.33333px;font-family:'Fira Code';-inkscape-font-specification:'Fira Code Semi-Bold';stroke-width:0.193066">LIBERTAD          ES ORO</tspan></textPath></text></g>
<g id="g34">
</g>
<g id="g36">
</g>
<g id="g38">
</g>
<g id="g40">
</g>
<g id="g42">
</g>
<g id="g44">
</g>
<g id="g46">
</g>
<g id="g48">
</g>
<g id="g50">
</g>
<g id="g52">
</g>
<g id="g54">
</g>
<g id="g56">
</g>
<g id="g58">
</g>
<g id="g60">
</g>
<g id="g62">
</g>
<circle style="font-variation-settings:'wght' 600;opacity:1;fill:#ffffff;fill-opacity:1;stroke-width:3.887;stroke-linejoin:round;stroke-miterlimit:4;stroke-dasharray:none;stroke-opacity:0.25;paint-order:markers fill stroke" id="innerCoin" cx="4.5223789" cy="-50.710434" r="17" transform="rotate(129.90382)" /><path fill="none" stroke="#000000" stroke-linejoin="round" stroke-width="1.51481" d="m 45.502104,41.295673 c -0.07841,-0.654381 -0.608169,-2.168949 -0.505743,-2.984727 0,0 3.199978,-0.586141 1.932509,-2.241786 -0.70904,-0.92735 -2.114173,-2.754012 -2.029362,-3.571352 0.379305,-3.654885 -1.259524,-9.410222 -8.634257,-9.410222 -9.013563,0 -11.471808,5.755337 -11.471808,9.866292 0,4.775778 2.448658,6.577529 3.27766,9.044101 1.181105,3.51273 3.319476,5.495261 9.013562,6.57753 3.232018,0.540343 8.194148,0.82219 7.700452,-2.466574 -0.13127,-0.875223 0.307861,-2.313402 0.40873,-3.118737 L 42.85818,42.184206 Z" id="path10" style="stroke-width:2;stroke-miterlimit:4;stroke-dasharray:none" /></svg>
