<?xml version="1.0" encoding="UTF-8" standalone="no"?>
<svg xmlns:dc="http://purl.org/dc/elements/1.1/" xmlns:cc="http://creativecommons.org/ns#" xmlns:rdf="http://www.w3.org/1999/02/22-rdf-syntax-ns#" xmlns:svg="http://www.w3.org/2000/svg" xmlns="http://www.w3.org/2000/svg" version="1.1" id="Capa_1" x="0px" y="0px" viewBox="0 0 72.000002 72.000002" xml:space="preserve" width="72" height="72"><title id="title864">Copas</title><metadata id="metadata39"><rdf:RDF><cc:Work rdf:about=""><dc:format>image/svg+xml</dc:format><dc:type rdf:resource="http://purl.org/dc/dcmitype/StillImage" /><dc:title>Copas</dc:title><dc:creator><cc:Agent><dc:title>Fernando Carmona Varo</dc:title></cc:Agent></dc:creator><cc:license rdf:resource="http://creativecommons.org/licenses/by-sa/4.0/" /></cc:Work><cc:License rdf:about="http://creativecommons.org/licenses/by-sa/4.0/"><cc:permits rdf:resource="http://creativecommons.org/ns#Reproduction" /><cc:permits rdf:resource="http://creativecommons.org/ns#Distribution" /><cc:requires rdf:resource="http://creativecommons.org/ns#Notice" /><cc:requires rdf:resource="http://creativecommons.org/ns#Attribution" /><cc:permits rdf:resource="http://creativecommons.org/ns#DerivativeWorks" /><cc:requires rdf:resource="http://creativecommons.org/ns#ShareAlike" /></cc:License></rdf:RDF></metadata><defs id="defs37" />
<path d="M 55.451274,21.88038 C 51.021391,11.167582 37.235081,11.308516 35.999998,12.795385 34.782531,11.352752 23.487699,10.655394 16.80456,21.88038 c -1.664819,3.287135 -1.055426,6.821911 0.09437,6.89137 1.428603,2.539636 1.603308,6.52406 4.30687,9.8508 2.108301,2.594258 6.802714,4.908491 12.7942,5.450819 -3.439891,3.501202 -0.709485,4.567477 -6,7.403511 v 3.525458 c 4.116119,1.209714 12.144527,1.306054 16,0 V 51.47688 c -4.900562,-2.54357 -2.560117,-3.902309 -6,-7.403511 5.991486,-0.542328 10.940718,-2.856561 13.049025,-5.450819 2.703563,-3.32674 2.878269,-7.311164 4.306871,-9.8508 1.21424,-0.0094 1.057366,-4.015473 0.09537,-6.89137 z" id="path2" style="stroke-width:0.222071" />
<g id="g4">
</g>
<g id="g6">
</g>
<g id="g8">
</g>
<g id="g10">
</g>
<g id="g12">
</g>
<g id="g14">
</g>
<g id="g16">
</g>
<g id="g18">
</g>
<g id="g20">
</g>
<g id="g22">
</g>
<g id="g24">
</g>
<g id="g26">
</g>
<g id="g28">
</g>
<g id="g30">
</g>
<g id="g32">
</g>
</svg>
